<svg viewBox="0 0 90 90" xmlns="http://www.w3.org/2000/svg">
<path d="M7.429687,-0.1468448 L7.3329844,0.849684 L14.353468,1.8812945 z" fill="blue" stroke="black" stroke-width="0.1"/>
<path d="M7.429687,-0.1468448 L14.353468,1.8812945 L14.548853,0.8992665 z" fill="blue" stroke="black" stroke-width="0.1"/>
<path d="M14.548853,0.8992665 L14.353468,1.8812945 L21.104061,3.582681 z" fill="blue" stroke="black" stroke-width="0.1"/>
<path d="M14.548853,0.8992665 L21.104061,3.582681 L21.39804,2.6255019 z" fill="blue" stroke="black" stroke-width="0.1"/>
<path d="M21.39804,2.6255019 L21.104061,3.582681 L27.623867,5.9557843 z" fill="blue" stroke="black" stroke-width="0.1"/>
<path d="M21.39804,2.6255019 L27.623867,5.9557843 L28.013767,5.0335193 z" fill="blue" stroke="black" stroke-width="0.1"/>
<path d="M28.013767,5.0335193 L27.623867,5.9557843 L33.947285,9.0171385 z" fill="blue" stroke="black" stroke-width="0.1"/>
<path d="M28.013767,5.0335193 L33.947285,9.0171385 L34.428005,8.1388445 z" fill="blue" stroke="black" stroke-width="0.1"/>
<path d="M34.428005,8.1388445 L33.947285,9.0171385 L40.103188,12.79747 z" fill="blue" stroke="black" stroke-width="0.1"/>
<path d="M34.428005,8.1388445 L40.103188,12.79747 L40.66765,11.970598 z" fill="blue" stroke="black" stroke-width="0.1"/>
<path d="M40.66765,11.970598 L40.103188,12.79747 L46.114204,17.340982 z" fill="blue" stroke="black" stroke-width="0.1"/>
<path d="M40.66765,11.970598 L46.114204,17.340982 L46.753944,16.571009 z" fill="blue" stroke="black" stroke-width="0.1"/>
<path d="M46.753944,16.571009 L46.114204,17.340982 L51.996323,22.70443 z" fill="blue" stroke="black" stroke-width="0.1"/>
<path d="M46.753944,16.571009 L51.996323,22.70443 L52.702187,21.994755 z" fill="blue" stroke="black" stroke-width="0.1"/>
<path d="M52.702187,21.994755 L51.996323,22.70443 L57.758713,28.956116 z" fill="blue" stroke="black" stroke-width="0.1"/>
<path d="M52.702187,21.994755 L57.758713,28.956116 L58.521477,28.308174 z" fill="blue" stroke="black" stroke-width="0.1"/>
<path d="M58.521477,28.308174 L57.758713,28.956116 L63.40381,36.17484 z" fill="blue" stroke="black" stroke-width="0.1"/>
<path d="M58.521477,28.308174 L63.40381,36.17484 L64.21466,35.58839 z" fill="blue" stroke="black" stroke-width="0.1"/>
<path d="M64.21466,35.58839 L63.40381,36.17484 L68.92759,44.44898 z" fill="blue" stroke="black" stroke-width="0.1"/>
<path d="M64.21466,35.58839 L68.92759,44.44898 L69.778465,43.922466 z" fill="blue" stroke="black" stroke-width="0.1"/>
<path d="M69.778465,43.922466 L68.92759,44.44898 L74.31996,53.875633 z" fill="blue" stroke="black" stroke-width="0.1"/>
<path d="M69.778465,43.922466 L74.31996,53.875633 L75.20369,53.406555 z" fill="blue" stroke="black" stroke-width="0.1"/>
<path d="M75.20369,53.406555 L74.31996,53.875633 L79.56516,64.55991 z" fill="blue" stroke="black" stroke-width="0.1"/>
<path d="M75.20369,53.406555 L79.56516,64.55991 L80.47555,64.14515 z" fill="blue" stroke="black" stroke-width="0.1"/>
<path d="M80.47555,64.14515 L79.56516,64.55991 L84.64225,76.61432 z" fill="blue" stroke="black" stroke-width="0.1"/>
<path d="M80.47555,64.14515 L84.64225,76.61432 L85.57406,76.2504 z" fill="blue" stroke="black" stroke-width="0.1"/>
<path d="M89.64645,90.35355 L90.47036,89.830414 L88.7701,88.062996 z" fill="blue" stroke="black" stroke-width="0.1"/>
<path d="M85.57406,76.2504 L84.64225,76.61432 L88.7701,88.062996 z" fill="blue" stroke="black" stroke-width="0.1"/>
<path d="M85.57406,76.2504 L88.7701,88.062996 L90.47036,89.830414 z" fill="blue" stroke="black" stroke-width="0.1"/>
<path d="M89.64645,90.35355 L88.7701,88.062996 L1.2680436,0.56093687 z" fill="blue" stroke="black" stroke-width="0.1"/>
<path d="M89.64645,90.35355 L1.2680436,0.56093687 L-1.2680436,-0.56093687 z" fill="blue" stroke="black" stroke-width="0.1"/>
<path d="M-1.2680436,-0.56093687 L1.2680436,0.56093687 L7.429687,-0.1468448 z" fill="blue" stroke="black" stroke-width="0.1"/>
<path d="M1.2680436,0.56093687 L7.3329844,0.849684 L7.429687,-0.1468448 z" fill="blue" stroke="black" stroke-width="0.1"/>
<svg viewBox="0 0 90 90" xmlns="http://www.w3.org/2000/svg">
<path d="M7.3813357,0.3514196 L0,0 L14.45116,1.3902805 z" fill="red" stroke="black" stroke-width="0.1"/>
<path d="M14.45116,1.3902805 L0,0 L21.25105,3.1040914 z" fill="red" stroke="black" stroke-width="0.1"/>
<path d="M21.25105,3.1040914 L0,0 L27.818817,5.494652 z" fill="red" stroke="black" stroke-width="0.1"/>
<path d="M27.818817,5.494652 L0,0 L34.187645,8.5779915 z" fill="red" stroke="black" stroke-width="0.1"/>
<path d="M34.187645,8.5779915 L0,0 L40.385418,12.384034 z" fill="red" stroke="black" stroke-width="0.1"/>
<path d="M40.385418,12.384034 L0,0 L46.434074,16.955996 z" fill="red" stroke="black" stroke-width="0.1"/>
<path d="M46.434074,16.955996 L0,0 L52.349255,22.349592 z" fill="red" stroke="black" stroke-width="0.1"/>
<path d="M52.349255,22.349592 L0,0 L58.140095,28.632145 z" fill="red" stroke="black" stroke-width="0.1"/>
<path d="M58.140095,28.632145 L0,0 L63.809235,35.881615 z" fill="red" stroke="black" stroke-width="0.1"/>
<path d="M63.809235,35.881615 L0,0 L69.35303,44.185722 z" fill="red" stroke="black" stroke-width="0.1"/>
<path d="M69.35303,44.185722 L0,0 L74.761826,53.641094 z" fill="red" stroke="black" stroke-width="0.1"/>
<path d="M74.761826,53.641094 L0,0 L80.020355,64.35253 z" fill="red" stroke="black" stroke-width="0.1"/>
<path d="M80.020355,64.35253 L0,0 L85.108154,76.43236 z" fill="red" stroke="black" stroke-width="0.1"/>
<path d="M85.108154,76.43236 L0,0 L90,90 z" fill="red" stroke="black" stroke-width="0.1"/>
</svg>
</svg>