<svg viewBox="0 0 90 90" xmlns="http://www.w3.org/2000/svg">
<path d="M-90.18198,-7.50983 L-89.18454,-7.4281793 L-88.3127,-14.599836 z" fill="blue" stroke="black" stroke-width="0.1"/>
<path d="M-90.18198,-7.50983 L-88.3127,-14.599836 L-89.30052,-14.760519 z" fill="blue" stroke="black" stroke-width="0.1"/>
<path d="M-89.30052,-14.760519 L-88.3127,-14.599836 L-86.8948,-21.540127 z" fill="blue" stroke="black" stroke-width="0.1"/>
<path d="M-89.30052,-14.760519 L-86.8948,-21.540127 L-87.86637,-21.780369 z" fill="blue" stroke="black" stroke-width="0.1"/>
<path d="M-87.86637,-21.780369 L-86.8948,-21.540127 L-84.934,-28.275484 z" fill="blue" stroke="black" stroke-width="0.1"/>
<path d="M-87.86637,-21.780369 L-84.934,-28.275484 L-85.88311,-28.59289 z" fill="blue" stroke="black" stroke-width="0.1"/>
<path d="M-85.88311,-28.59289 L-84.934,-28.275484 L-82.4367,-34.866653 z" fill="blue" stroke="black" stroke-width="0.1"/>
<path d="M-85.88311,-28.59289 L-82.4367,-34.866653 L-83.35821,-35.256912 z" fill="blue" stroke="black" stroke-width="0.1"/>
<path d="M-83.35821,-35.256912 L-82.4367,-34.866653 L-79.48871,-41.144447 z" fill="blue" stroke="black" stroke-width="0.1"/>
<path d="M-83.35821,-35.256912 L-79.48871,-41.144447 L-80.377335,-41.60472 z" fill="blue" stroke="black" stroke-width="0.1"/>
<path d="M-80.377335,-41.60472 L-79.48871,-41.144447 L-76.08694,-47.13001 z" fill="blue" stroke="black" stroke-width="0.1"/>
<path d="M-80.377335,-41.60472 L-76.08694,-47.13001 L-76.937065,-47.65804 z" fill="blue" stroke="black" stroke-width="0.1"/>
<path d="M-76.937065,-47.65804 L-76.08694,-47.13001 L-72.22223,-52.84245 z" fill="blue" stroke="black" stroke-width="0.1"/>
<path d="M-76.937065,-47.65804 L-72.22223,-52.84245 L-73.02905,-53.434467 z" fill="blue" stroke="black" stroke-width="0.1"/>
<path d="M-73.02905,-53.434467 L-72.22223,-52.84245 L-67.92667,-58.250523 z" fill="blue" stroke="black" stroke-width="0.1"/>
<path d="M-73.02905,-53.434467 L-67.92667,-58.250523 L-68.686066,-58.90225 z" fill="blue" stroke="black" stroke-width="0.1"/>
<path d="M-68.686066,-58.90225 L-67.92667,-58.250523 L-63.27332,-63.273327 z" fill="blue" stroke="black" stroke-width="0.1"/>
<path d="M-68.686066,-58.90225 L-63.27332,-63.273327 L-63.980938,-63.980946 z" fill="blue" stroke="black" stroke-width="0.1"/>
<path d="M-63.980938,-63.980946 L-63.27332,-63.273327 L-58.250515,-67.92668 z" fill="blue" stroke="black" stroke-width="0.1"/>
<path d="M-63.980938,-63.980946 L-58.250515,-67.92668 L-58.90224,-68.68608 z" fill="blue" stroke="black" stroke-width="0.1"/>
<path d="M-58.90224,-68.68608 L-58.250515,-67.92668 L-52.84244,-72.22223 z" fill="blue" stroke="black" stroke-width="0.1"/>
<path d="M-58.90224,-68.68608 L-52.84244,-72.22223 L-53.43446,-73.02905 z" fill="blue" stroke="black" stroke-width="0.1"/>
<path d="M-53.43446,-73.02905 L-52.84244,-72.22223 L-47.130005,-76.08695 z" fill="blue" stroke="black" stroke-width="0.1"/>
<path d="M-53.43446,-73.02905 L-47.130005,-76.08695 L-47.658035,-76.93708 z" fill="blue" stroke="black" stroke-width="0.1"/>
<path d="M-47.658035,-76.93708 L-47.130005,-76.08695 L-41.144444,-79.488716 z" fill="blue" stroke="black" stroke-width="0.1"/>
<path d="M-47.658035,-76.93708 L-41.144444,-79.488716 L-41.604717,-80.37734 z" fill="blue" stroke="black" stroke-width="0.1"/>
<path d="M-41.604717,-80.37734 L-41.144444,-79.488716 L-34.86665,-82.43671 z" fill="blue" stroke="black" stroke-width="0.1"/>
<path d="M-41.604717,-80.37734 L-34.86665,-82.43671 L-35.25691,-83.358215 z" fill="blue" stroke="black" stroke-width="0.1"/>
<path d="M-35.25691,-83.358215 L-34.86665,-82.43671 L-28.27548,-84.934 z" fill="blue" stroke="black" stroke-width="0.1"/>
<path d="M-35.25691,-83.358215 L-28.27548,-84.934 L-28.592886,-85.88311 z" fill="blue" stroke="black" stroke-width="0.1"/>
<path d="M-28.592886,-85.88311 L-28.27548,-84.934 L-21.540121,-86.89479 z" fill="blue" stroke="black" stroke-width="0.1"/>
<path d="M-28.592886,-85.88311 L-21.540121,-86.89479 L-21.780363,-87.86636 z" fill="blue" stroke="black" stroke-width="0.1"/>
<path d="M-21.780363,-87.86636 L-21.540121,-86.89479 L-14.599836,-88.312706 z" fill="blue" stroke="black" stroke-width="0.1"/>
<path d="M-21.780363,-87.86636 L-14.599836,-88.312706 L-14.760519,-89.30053 z" fill="blue" stroke="black" stroke-width="0.1"/>
<path d="M-14.760519,-89.30053 L-14.599836,-88.312706 L-7.4281807,-89.18454 z" fill="blue" stroke="black" stroke-width="0.1"/>
<path d="M-14.760519,-89.30053 L-7.4281807,-89.18454 L-7.5098305,-90.18198 z" fill="blue" stroke="black" stroke-width="0.1"/>
<path d="M-7.5098305,-90.18198 L-7.4281807,-89.18454 L-0.0000000018659951,-89.49955 z" fill="blue" stroke="black" stroke-width="0.1"/>
<path d="M-7.5098305,-90.18198 L-0.0000000018659951,-89.49955 L0.0000000018659951,-90.50045 z" fill="blue" stroke="black" stroke-width="0.1"/>
<path d="M0.0000000018659951,-90.50045 L-0.0000000018659951,-89.49955 L7.4281793,-89.18454 z" fill="blue" stroke="black" stroke-width="0.1"/>
<path d="M0.0000000018659951,-90.50045 L7.4281793,-89.18454 L7.50983,-90.18198 z" fill="blue" stroke="black" stroke-width="0.1"/>
<path d="M7.50983,-90.18198 L7.4281793,-89.18454 L14.599836,-88.3127 z" fill="blue" stroke="black" stroke-width="0.1"/>
<path d="M7.50983,-90.18198 L14.599836,-88.3127 L14.760519,-89.30052 z" fill="blue" stroke="black" stroke-width="0.1"/>
<path d="M14.760519,-89.30052 L14.599836,-88.3127 L21.540127,-86.8948 z" fill="blue" stroke="black" stroke-width="0.1"/>
<path d="M14.760519,-89.30052 L21.540127,-86.8948 L21.780369,-87.86637 z" fill="blue" stroke="black" stroke-width="0.1"/>
<path d="M21.780369,-87.86637 L21.540127,-86.8948 L28.275484,-84.934 z" fill="blue" stroke="black" stroke-width="0.1"/>
<path d="M21.780369,-87.86637 L28.275484,-84.934 L28.59289,-85.88311 z" fill="blue" stroke="black" stroke-width="0.1"/>
<path d="M28.59289,-85.88311 L28.275484,-84.934 L34.866653,-82.4367 z" fill="blue" stroke="black" stroke-width="0.1"/>
<path d="M28.59289,-85.88311 L34.866653,-82.4367 L35.256912,-83.35821 z" fill="blue" stroke="black" stroke-width="0.1"/>
<path d="M35.256912,-83.35821 L34.866653,-82.4367 L41.144447,-79.48871 z" fill="blue" stroke="black" stroke-width="0.1"/>
<path d="M35.256912,-83.35821 L41.144447,-79.48871 L41.60472,-80.377335 z" fill="blue" stroke="black" stroke-width="0.1"/>
<path d="M41.60472,-80.377335 L41.144447,-79.48871 L47.13001,-76.08694 z" fill="blue" stroke="black" stroke-width="0.1"/>
<path d="M41.60472,-80.377335 L47.13001,-76.08694 L47.65804,-76.937065 z" fill="blue" stroke="black" stroke-width="0.1"/>
<path d="M47.65804,-76.937065 L47.13001,-76.08694 L52.84245,-72.22223 z" fill="blue" stroke="black" stroke-width="0.1"/>
<path d="M47.65804,-76.937065 L52.84245,-72.22223 L53.434467,-73.02905 z" fill="blue" stroke="black" stroke-width="0.1"/>
<path d="M53.434467,-73.02905 L52.84245,-72.22223 L58.250523,-67.92667 z" fill="blue" stroke="black" stroke-width="0.1"/>
<path d="M53.434467,-73.02905 L58.250523,-67.92667 L58.90225,-68.686066 z" fill="blue" stroke="black" stroke-width="0.1"/>
<path d="M58.90225,-68.686066 L58.250523,-67.92667 L63.273327,-63.27332 z" fill="blue" stroke="black" stroke-width="0.1"/>
<path d="M58.90225,-68.686066 L63.273327,-63.27332 L63.980946,-63.980938 z" fill="blue" stroke="black" stroke-width="0.1"/>
<path d="M63.980946,-63.980938 L63.273327,-63.27332 L67.92668,-58.250515 z" fill="blue" stroke="black" stroke-width="0.1"/>
<path d="M63.980946,-63.980938 L67.92668,-58.250515 L68.68608,-58.90224 z" fill="blue" stroke="black" stroke-width="0.1"/>
<path d="M68.68608,-58.90224 L67.92668,-58.250515 L72.22223,-52.84244 z" fill="blue" stroke="black" stroke-width="0.1"/>
<path d="M68.68608,-58.90224 L72.22223,-52.84244 L73.02905,-53.43446 z" fill="blue" stroke="black" stroke-width="0.1"/>
<path d="M73.02905,-53.43446 L72.22223,-52.84244 L76.08695,-47.130005 z" fill="blue" stroke="black" stroke-width="0.1"/>
<path d="M73.02905,-53.43446 L76.08695,-47.130005 L76.93708,-47.658035 z" fill="blue" stroke="black" stroke-width="0.1"/>
<path d="M76.93708,-47.658035 L76.08695,-47.130005 L79.488716,-41.144444 z" fill="blue" stroke="black" stroke-width="0.1"/>
<path d="M76.93708,-47.658035 L79.488716,-41.144444 L80.37734,-41.604717 z" fill="blue" stroke="black" stroke-width="0.1"/>
<path d="M80.37734,-41.604717 L79.488716,-41.144444 L82.43671,-34.86665 z" fill="blue" stroke="black" stroke-width="0.1"/>
<path d="M80.37734,-41.604717 L82.43671,-34.86665 L83.358215,-35.25691 z" fill="blue" stroke="black" stroke-width="0.1"/>
<path d="M83.358215,-35.25691 L82.43671,-34.86665 L84.934,-28.27548 z" fill="blue" stroke="black" stroke-width="0.1"/>
<path d="M83.358215,-35.25691 L84.934,-28.27548 L85.88311,-28.592886 z" fill="blue" stroke="black" stroke-width="0.1"/>
<path d="M85.88311,-28.592886 L84.934,-28.27548 L86.89479,-21.540121 z" fill="blue" stroke="black" stroke-width="0.1"/>
<path d="M85.88311,-28.592886 L86.89479,-21.540121 L87.86636,-21.780363 z" fill="blue" stroke="black" stroke-width="0.1"/>
<path d="M87.86636,-21.780363 L86.89479,-21.540121 L88.312706,-14.599836 z" fill="blue" stroke="black" stroke-width="0.1"/>
<path d="M87.86636,-21.780363 L88.312706,-14.599836 L89.30053,-14.760519 z" fill="blue" stroke="black" stroke-width="0.1"/>
<path d="M89.30053,-14.760519 L88.312706,-14.599836 L89.18454,-7.4281807 z" fill="blue" stroke="black" stroke-width="0.1"/>
<path d="M89.30053,-14.760519 L89.18454,-7.4281807 L90.18198,-7.5098305 z" fill="blue" stroke="black" stroke-width="0.1"/>
<path d="M90.18198,-7.5098305 L89.18454,-7.4281807 L89.49955,-0.0000000018659951 z" fill="blue" stroke="black" stroke-width="0.1"/>
<path d="M90.18198,-7.5098305 L89.49955,-0.0000000018659951 L90.50045,0.0000000018659951 z" fill="blue" stroke="black" stroke-width="0.1"/>
<path d="M90.50045,0.0000000018659951 L89.49955,-0.0000000018659951 L89.18454,7.4281793 z" fill="blue" stroke="black" stroke-width="0.1"/>
<path d="M90.50045,0.0000000018659951 L89.18454,7.4281793 L90.18198,7.50983 z" fill="blue" stroke="black" stroke-width="0.1"/>
<path d="M90.18198,7.50983 L89.18454,7.4281793 L88.3127,14.599836 z" fill="blue" stroke="black" stroke-width="0.1"/>
<path d="M90.18198,7.50983 L88.3127,14.599836 L89.30052,14.760519 z" fill="blue" stroke="black" stroke-width="0.1"/>
<path d="M89.30052,14.760519 L88.3127,14.599836 L86.8948,21.540127 z" fill="blue" stroke="black" stroke-width="0.1"/>
<path d="M89.30052,14.760519 L86.8948,21.540127 L87.86637,21.780369 z" fill="blue" stroke="black" stroke-width="0.1"/>
<path d="M87.86637,21.780369 L86.8948,21.540127 L84.934,28.275484 z" fill="blue" stroke="black" stroke-width="0.1"/>
<path d="M87.86637,21.780369 L84.934,28.275484 L85.88311,28.59289 z" fill="blue" stroke="black" stroke-width="0.1"/>
<path d="M85.88311,28.59289 L84.934,28.275484 L82.4367,34.866653 z" fill="blue" stroke="black" stroke-width="0.1"/>
<path d="M85.88311,28.59289 L82.4367,34.866653 L83.35821,35.256912 z" fill="blue" stroke="black" stroke-width="0.1"/>
<path d="M83.35821,35.256912 L82.4367,34.866653 L79.48871,41.144447 z" fill="blue" stroke="black" stroke-width="0.1"/>
<path d="M83.35821,35.256912 L79.48871,41.144447 L80.377335,41.60472 z" fill="blue" stroke="black" stroke-width="0.1"/>
<path d="M80.377335,41.60472 L79.48871,41.144447 L76.08694,47.13001 z" fill="blue" stroke="black" stroke-width="0.1"/>
<path d="M80.377335,41.60472 L76.08694,47.13001 L76.937065,47.65804 z" fill="blue" stroke="black" stroke-width="0.1"/>
<path d="M76.937065,47.65804 L76.08694,47.13001 L72.22223,52.84245 z" fill="blue" stroke="black" stroke-width="0.1"/>
<path d="M76.937065,47.65804 L72.22223,52.84245 L73.02905,53.434467 z" fill="blue" stroke="black" stroke-width="0.1"/>
<path d="M73.02905,53.434467 L72.22223,52.84245 L67.92667,58.250523 z" fill="blue" stroke="black" stroke-width="0.1"/>
<path d="M73.02905,53.434467 L67.92667,58.250523 L68.686066,58.90225 z" fill="blue" stroke="black" stroke-width="0.1"/>
<path d="M68.686066,58.90225 L67.92667,58.250523 L63.27332,63.273327 z" fill="blue" stroke="black" stroke-width="0.1"/>
<path d="M68.686066,58.90225 L63.27332,63.273327 L63.980938,63.980946 z" fill="blue" stroke="black" stroke-width="0.1"/>
<path d="M63.980938,63.980946 L63.27332,63.273327 L58.250515,67.92668 z" fill="blue" stroke="black" stroke-width="0.1"/>
<path d="M63.980938,63.980946 L58.250515,67.92668 L58.90224,68.68608 z" fill="blue" stroke="black" stroke-width="0.1"/>
<path d="M58.90224,68.68608 L58.250515,67.92668 L52.84244,72.22223 z" fill="blue" stroke="black" stroke-width="0.1"/>
<path d="M58.90224,68.68608 L52.84244,72.22223 L53.43446,73.02905 z" fill="blue" stroke="black" stroke-width="0.1"/>
<path d="M53.43446,73.02905 L52.84244,72.22223 L47.130005,76.08695 z" fill="blue" stroke="black" stroke-width="0.1"/>
<path d="M53.43446,73.02905 L47.130005,76.08695 L47.658035,76.93708 z" fill="blue" stroke="black" stroke-width="0.1"/>
<path d="M47.658035,76.93708 L47.130005,76.08695 L41.144444,79.488716 z" fill="blue" stroke="black" stroke-width="0.1"/>
<path d="M47.658035,76.93708 L41.144444,79.488716 L41.604717,80.37734 z" fill="blue" stroke="black" stroke-width="0.1"/>
<path d="M41.604717,80.37734 L41.144444,79.488716 L34.86665,82.43671 z" fill="blue" stroke="black" stroke-width="0.1"/>
<path d="M41.604717,80.37734 L34.86665,82.43671 L35.25691,83.358215 z" fill="blue" stroke="black" stroke-width="0.1"/>
<path d="M35.25691,83.358215 L34.86665,82.43671 L28.27548,84.934 z" fill="blue" stroke="black" stroke-width="0.1"/>
<path d="M35.25691,83.358215 L28.27548,84.934 L28.592886,85.88311 z" fill="blue" stroke="black" stroke-width="0.1"/>
<path d="M28.592886,85.88311 L28.27548,84.934 L21.540121,86.89479 z" fill="blue" stroke="black" stroke-width="0.1"/>
<path d="M28.592886,85.88311 L21.540121,86.89479 L21.780363,87.86636 z" fill="blue" stroke="black" stroke-width="0.1"/>
<path d="M21.780363,87.86636 L21.540121,86.89479 L14.599836,88.312706 z" fill="blue" stroke="black" stroke-width="0.1"/>
<path d="M21.780363,87.86636 L14.599836,88.312706 L14.760519,89.30053 z" fill="blue" stroke="black" stroke-width="0.1"/>
<path d="M14.760519,89.30053 L14.599836,88.312706 L7.4281807,89.18454 z" fill="blue" stroke="black" stroke-width="0.1"/>
<path d="M14.760519,89.30053 L7.4281807,89.18454 L7.5098305,90.18198 z" fill="blue" stroke="black" stroke-width="0.1"/>
<path d="M7.5098305,90.18198 L7.4281807,89.18454 L0.0000000018659951,89.49955 z" fill="blue" stroke="black" stroke-width="0.1"/>
<path d="M7.5098305,90.18198 L0.0000000018659951,89.49955 L-0.0000000018659951,90.50045 z" fill="blue" stroke="black" stroke-width="0.1"/>
<path d="M-0.0000000018659951,90.50045 L0.0000000018659951,89.49955 L-7.4281793,89.18454 z" fill="blue" stroke="black" stroke-width="0.1"/>
<path d="M-0.0000000018659951,90.50045 L-7.4281793,89.18454 L-7.50983,90.18198 z" fill="blue" stroke="black" stroke-width="0.1"/>
<path d="M-7.50983,90.18198 L-7.4281793,89.18454 L-14.599836,88.3127 z" fill="blue" stroke="black" stroke-width="0.1"/>
<path d="M-7.50983,90.18198 L-14.599836,88.3127 L-14.760519,89.30052 z" fill="blue" stroke="black" stroke-width="0.1"/>
<path d="M-14.760519,89.30052 L-14.599836,88.3127 L-21.540127,86.8948 z" fill="blue" stroke="black" stroke-width="0.1"/>
<path d="M-14.760519,89.30052 L-21.540127,86.8948 L-21.780369,87.86637 z" fill="blue" stroke="black" stroke-width="0.1"/>
<path d="M-21.780369,87.86637 L-21.540127,86.8948 L-28.275484,84.934 z" fill="blue" stroke="black" stroke-width="0.1"/>
<path d="M-21.780369,87.86637 L-28.275484,84.934 L-28.59289,85.88311 z" fill="blue" stroke="black" stroke-width="0.1"/>
<path d="M-28.59289,85.88311 L-28.275484,84.934 L-34.866653,82.4367 z" fill="blue" stroke="black" stroke-width="0.1"/>
<path d="M-28.59289,85.88311 L-34.866653,82.4367 L-35.256912,83.35821 z" fill="blue" stroke="black" stroke-width="0.1"/>
<path d="M-35.256912,83.35821 L-34.866653,82.4367 L-41.144447,79.48871 z" fill="blue" stroke="black" stroke-width="0.1"/>
<path d="M-35.256912,83.35821 L-41.144447,79.48871 L-41.60472,80.377335 z" fill="blue" stroke="black" stroke-width="0.1"/>
<path d="M-41.60472,80.377335 L-41.144447,79.48871 L-47.13001,76.08694 z" fill="blue" stroke="black" stroke-width="0.1"/>
<path d="M-41.60472,80.377335 L-47.13001,76.08694 L-47.65804,76.937065 z" fill="blue" stroke="black" stroke-width="0.1"/>
<path d="M-47.65804,76.937065 L-47.13001,76.08694 L-52.84245,72.22223 z" fill="blue" stroke="black" stroke-width="0.1"/>
<path d="M-47.65804,76.937065 L-52.84245,72.22223 L-53.434467,73.02905 z" fill="blue" stroke="black" stroke-width="0.1"/>
<path d="M-53.434467,73.02905 L-52.84245,72.22223 L-58.250523,67.92667 z" fill="blue" stroke="black" stroke-width="0.1"/>
<path d="M-53.434467,73.02905 L-58.250523,67.92667 L-58.90225,68.686066 z" fill="blue" stroke="black" stroke-width="0.1"/>
<path d="M-58.90225,68.686066 L-58.250523,67.92667 L-63.273327,63.27332 z" fill="blue" stroke="black" stroke-width="0.1"/>
<path d="M-58.90225,68.686066 L-63.273327,63.27332 L-63.980946,63.980938 z" fill="blue" stroke="black" stroke-width="0.1"/>
<path d="M-63.980946,63.980938 L-63.273327,63.27332 L-67.92668,58.250515 z" fill="blue" stroke="black" stroke-width="0.1"/>
<path d="M-63.980946,63.980938 L-67.92668,58.250515 L-68.68608,58.90224 z" fill="blue" stroke="black" stroke-width="0.1"/>
<path d="M-68.68608,58.90224 L-67.92668,58.250515 L-72.22223,52.84244 z" fill="blue" stroke="black" stroke-width="0.1"/>
<path d="M-68.68608,58.90224 L-72.22223,52.84244 L-73.02905,53.43446 z" fill="blue" stroke="black" stroke-width="0.1"/>
<path d="M-73.02905,53.43446 L-72.22223,52.84244 L-76.08695,47.130005 z" fill="blue" stroke="black" stroke-width="0.1"/>
<path d="M-73.02905,53.43446 L-76.08695,47.130005 L-76.93708,47.658035 z" fill="blue" stroke="black" stroke-width="0.1"/>
<path d="M-76.93708,47.658035 L-76.08695,47.130005 L-79.488716,41.144444 z" fill="blue" stroke="black" stroke-width="0.1"/>
<path d="M-76.93708,47.658035 L-79.488716,41.144444 L-80.37734,41.604717 z" fill="blue" stroke="black" stroke-width="0.1"/>
<path d="M-80.37734,41.604717 L-79.488716,41.144444 L-82.43671,34.86665 z" fill="blue" stroke="black" stroke-width="0.1"/>
<path d="M-80.37734,41.604717 L-82.43671,34.86665 L-83.358215,35.25691 z" fill="blue" stroke="black" stroke-width="0.1"/>
<path d="M-83.358215,35.25691 L-82.43671,34.86665 L-84.934,28.27548 z" fill="blue" stroke="black" stroke-width="0.1"/>
<path d="M-83.358215,35.25691 L-84.934,28.27548 L-85.88311,28.592886 z" fill="blue" stroke="black" stroke-width="0.1"/>
<path d="M-85.88311,28.592886 L-84.934,28.27548 L-86.89479,21.540121 z" fill="blue" stroke="black" stroke-width="0.1"/>
<path d="M-85.88311,28.592886 L-86.89479,21.540121 L-87.86636,21.780363 z" fill="blue" stroke="black" stroke-width="0.1"/>
<path d="M-87.86636,21.780363 L-86.89479,21.540121 L-88.312706,14.599836 z" fill="blue" stroke="black" stroke-width="0.1"/>
<path d="M-87.86636,21.780363 L-88.312706,14.599836 L-89.30053,14.760519 z" fill="blue" stroke="black" stroke-width="0.1"/>
<path d="M-89.30053,14.760519 L-88.312706,14.599836 L-89.18454,7.4281807 z" fill="blue" stroke="black" stroke-width="0.1"/>
<path d="M-89.30053,14.760519 L-89.18454,7.4281807 L-90.18198,7.5098305 z" fill="blue" stroke="black" stroke-width="0.1"/>
<path d="M-90.18198,7.5098305 L-89.18454,7.4281807 L-89.49955,0.0000000018659951 z" fill="blue" stroke="black" stroke-width="0.1"/>
<path d="M-90.18198,7.5098305 L-89.49955,0.0000000018659951 L-90.50045,-0.0000000018659951 z" fill="blue" stroke="black" stroke-width="0.1"/>
<path d="M-90.50045,-0.0000000018659951 L-89.49955,0.0000000018659951 L-90.18198,-7.50983 z" fill="blue" stroke="black" stroke-width="0.1"/>
<path d="M-89.49955,0.0000000018659951 L-89.18454,-7.4281793 L-90.18198,-7.50983 z" fill="blue" stroke="black" stroke-width="0.1"/>
<svg viewBox="0 0 90 90" xmlns="http://www.w3.org/2000/svg">
<path d="M0,-90 L-7.4690046,-89.68326 L7.4690046,-89.68326 z" fill="red" stroke="black" stroke-width="0.1"/>
<path d="M-7.4690046,-89.68326 L-14.680178,-88.80661 L-21.660248,-87.380585 z" fill="red" stroke="black" stroke-width="0.1"/>
<path d="M-21.660248,-87.380585 L-28.434187,-85.408554 L-35.061783,-82.89745 z" fill="red" stroke="black" stroke-width="0.1"/>
<path d="M-35.061783,-82.89745 L-41.374584,-79.93302 L-47.394024,-76.512 z" fill="red" stroke="black" stroke-width="0.1"/>
<path d="M-47.394024,-76.512 L-53.13846,-72.62564 L-58.576385,-68.306366 z" fill="red" stroke="black" stroke-width="0.1"/>
<path d="M-58.576385,-68.306366 L-63.627136,-63.62713 L-68.30638,-58.576378 z" fill="red" stroke="black" stroke-width="0.1"/>
<path d="M-68.30638,-58.576378 L-72.62564,-53.13845 L-76.51202,-47.39402 z" fill="red" stroke="black" stroke-width="0.1"/>
<path d="M-76.51202,-47.39402 L-79.93303,-41.37458 L-82.89746,-35.06178 z" fill="red" stroke="black" stroke-width="0.1"/>
<path d="M-82.89746,-35.06178 L-85.408554,-28.434183 L-87.38058,-21.660242 z" fill="red" stroke="black" stroke-width="0.1"/>
<path d="M-7.4690046,-89.68326 L-21.660248,-87.380585 L-35.061783,-82.89745 z" fill="red" stroke="black" stroke-width="0.1"/>
<path d="M-35.061783,-82.89745 L-47.394024,-76.512 L-58.576385,-68.306366 z" fill="red" stroke="black" stroke-width="0.1"/>
<path d="M-58.576385,-68.306366 L-68.30638,-58.576378 L-76.51202,-47.39402 z" fill="red" stroke="black" stroke-width="0.1"/>
<path d="M-76.51202,-47.39402 L-82.89746,-35.06178 L-87.38058,-21.660242 z" fill="red" stroke="black" stroke-width="0.1"/>
<path d="M-7.4690046,-89.68326 L-35.061783,-82.89745 L-58.576385,-68.306366 z" fill="red" stroke="black" stroke-width="0.1"/>
<path d="M-58.576385,-68.306366 L-76.51202,-47.39402 L-87.38058,-21.660242 z" fill="red" stroke="black" stroke-width="0.1"/>
<path d="M-7.4690046,-89.68326 L-58.576385,-68.306366 L-87.38058,-21.660242 z" fill="red" stroke="black" stroke-width="0.1"/>
<path d="M7.4690046,-89.68326 L-7.4690046,-89.68326 L-87.38058,-21.660242 z" fill="red" stroke="black" stroke-width="0.1"/>
<path d="M14.680178,-88.80661 L7.4690046,-89.68326 L21.660248,-87.380585 z" fill="red" stroke="black" stroke-width="0.1"/>
<path d="M28.434187,-85.408554 L21.660248,-87.380585 L35.061783,-82.89745 z" fill="red" stroke="black" stroke-width="0.1"/>
<path d="M41.374584,-79.93302 L35.061783,-82.89745 L47.394024,-76.512 z" fill="red" stroke="black" stroke-width="0.1"/>
<path d="M53.13846,-72.62564 L47.394024,-76.512 L58.576385,-68.306366 z" fill="red" stroke="black" stroke-width="0.1"/>
<path d="M63.627136,-63.62713 L58.576385,-68.306366 L68.30638,-58.576378 z" fill="red" stroke="black" stroke-width="0.1"/>
<path d="M72.62564,-53.13845 L68.30638,-58.576378 L76.51202,-47.39402 z" fill="red" stroke="black" stroke-width="0.1"/>
<path d="M79.93303,-41.37458 L76.51202,-47.39402 L82.89746,-35.06178 z" fill="red" stroke="black" stroke-width="0.1"/>
<path d="M85.408554,-28.434183 L82.89746,-35.06178 L87.38058,-21.660242 z" fill="red" stroke="black" stroke-width="0.1"/>
<path d="M88.80662,-14.680178 L87.38058,-21.660242 L89.68326,-7.4690056 z" fill="red" stroke="black" stroke-width="0.1"/>
<path d="M90,0 L89.68326,-7.4690056 L89.68326,7.4690046 z" fill="red" stroke="black" stroke-width="0.1"/>
<path d="M88.80661,14.680178 L89.68326,7.4690046 L87.380585,21.660248 z" fill="red" stroke="black" stroke-width="0.1"/>
<path d="M85.408554,28.434187 L87.380585,21.660248 L82.89745,35.061783 z" fill="red" stroke="black" stroke-width="0.1"/>
<path d="M79.93302,41.374584 L82.89745,35.061783 L76.512,47.394024 z" fill="red" stroke="black" stroke-width="0.1"/>
<path d="M72.62564,53.13846 L76.512,47.394024 L68.306366,58.576385 z" fill="red" stroke="black" stroke-width="0.1"/>
<path d="M21.660248,-87.380585 L7.4690046,-89.68326 L35.061783,-82.89745 z" fill="red" stroke="black" stroke-width="0.1"/>
<path d="M47.394024,-76.512 L35.061783,-82.89745 L58.576385,-68.306366 z" fill="red" stroke="black" stroke-width="0.1"/>
<path d="M68.30638,-58.576378 L58.576385,-68.306366 L76.51202,-47.39402 z" fill="red" stroke="black" stroke-width="0.1"/>
<path d="M82.89746,-35.06178 L76.51202,-47.39402 L87.38058,-21.660242 z" fill="red" stroke="black" stroke-width="0.1"/>
<path d="M89.68326,-7.4690056 L87.38058,-21.660242 L89.68326,7.4690046 z" fill="red" stroke="black" stroke-width="0.1"/>
<path d="M87.380585,21.660248 L89.68326,7.4690046 L82.89745,35.061783 z" fill="red" stroke="black" stroke-width="0.1"/>
<path d="M76.512,47.394024 L82.89745,35.061783 L68.306366,58.576385 z" fill="red" stroke="black" stroke-width="0.1"/>
<path d="M35.061783,-82.89745 L7.4690046,-89.68326 L58.576385,-68.306366 z" fill="red" stroke="black" stroke-width="0.1"/>
<path d="M76.51202,-47.39402 L58.576385,-68.306366 L87.38058,-21.660242 z" fill="red" stroke="black" stroke-width="0.1"/>
<path d="M89.68326,7.4690046 L87.38058,-21.660242 L82.89745,35.061783 z" fill="red" stroke="black" stroke-width="0.1"/>
<path d="M7.4690046,-89.68326 L68.306366,58.576385 L82.89745,35.061783 z" fill="red" stroke="black" stroke-width="0.1"/>
<path d="M58.576385,-68.306366 L7.4690046,-89.68326 L87.38058,-21.660242 z" fill="red" stroke="black" stroke-width="0.1"/>
<path d="M7.4690046,-89.68326 L82.89745,35.061783 L87.38058,-21.660242 z" fill="red" stroke="black" stroke-width="0.1"/>
<path d="M7.4690046,-89.68326 L-87.38058,-21.660242 L68.306366,58.576385 z" fill="red" stroke="black" stroke-width="0.1"/>
<path d="M-87.38058,-21.660242 L-88.80662,-14.680178 L-89.68326,-7.4690056 z" fill="red" stroke="black" stroke-width="0.1"/>
<path d="M-89.68326,-7.4690056 L-90,0 L-89.68326,7.4690046 z" fill="red" stroke="black" stroke-width="0.1"/>
<path d="M-89.68326,7.4690046 L-88.80661,14.680178 L-87.380585,21.660248 z" fill="red" stroke="black" stroke-width="0.1"/>
<path d="M-87.380585,21.660248 L-85.408554,28.434187 L-82.89745,35.061783 z" fill="red" stroke="black" stroke-width="0.1"/>
<path d="M-82.89745,35.061783 L-79.93302,41.374584 L-76.512,47.394024 z" fill="red" stroke="black" stroke-width="0.1"/>
<path d="M-76.512,47.394024 L-72.62564,53.13846 L-68.306366,58.576385 z" fill="red" stroke="black" stroke-width="0.1"/>
<path d="M-68.306366,58.576385 L-63.62713,63.627136 L-58.576378,68.30638 z" fill="red" stroke="black" stroke-width="0.1"/>
<path d="M-58.576378,68.30638 L-53.13845,72.62564 L-47.39402,76.51202 z" fill="red" stroke="black" stroke-width="0.1"/>
<path d="M-47.39402,76.51202 L-41.37458,79.93303 L-35.06178,82.89746 z" fill="red" stroke="black" stroke-width="0.1"/>
<path d="M-35.06178,82.89746 L-28.434183,85.408554 L-21.660242,87.38058 z" fill="red" stroke="black" stroke-width="0.1"/>
<path d="M-21.660242,87.38058 L-14.680178,88.80662 L-7.4690056,89.68326 z" fill="red" stroke="black" stroke-width="0.1"/>
<path d="M-87.38058,-21.660242 L-89.68326,-7.4690056 L-89.68326,7.4690046 z" fill="red" stroke="black" stroke-width="0.1"/>
<path d="M-89.68326,7.4690046 L-87.380585,21.660248 L-82.89745,35.061783 z" fill="red" stroke="black" stroke-width="0.1"/>
<path d="M-82.89745,35.061783 L-76.512,47.394024 L-68.306366,58.576385 z" fill="red" stroke="black" stroke-width="0.1"/>
<path d="M-68.306366,58.576385 L-58.576378,68.30638 L-47.39402,76.51202 z" fill="red" stroke="black" stroke-width="0.1"/>
<path d="M-47.39402,76.51202 L-35.06178,82.89746 L-21.660242,87.38058 z" fill="red" stroke="black" stroke-width="0.1"/>
<path d="M-87.38058,-21.660242 L-21.660242,87.38058 L-7.4690056,89.68326 z" fill="red" stroke="black" stroke-width="0.1"/>
<path d="M-87.38058,-21.660242 L-89.68326,7.4690046 L-82.89745,35.061783 z" fill="red" stroke="black" stroke-width="0.1"/>
<path d="M-82.89745,35.061783 L-68.306366,58.576385 L-47.39402,76.51202 z" fill="red" stroke="black" stroke-width="0.1"/>
<path d="M-87.38058,-21.660242 L-47.39402,76.51202 L-21.660242,87.38058 z" fill="red" stroke="black" stroke-width="0.1"/>
<path d="M-87.38058,-21.660242 L-82.89745,35.061783 L-47.39402,76.51202 z" fill="red" stroke="black" stroke-width="0.1"/>
<path d="M63.62713,63.627136 L68.306366,58.576385 L58.576378,68.30638 z" fill="red" stroke="black" stroke-width="0.1"/>
<path d="M53.13845,72.62564 L58.576378,68.30638 L47.39402,76.51202 z" fill="red" stroke="black" stroke-width="0.1"/>
<path d="M41.37458,79.93303 L47.39402,76.51202 L35.06178,82.89746 z" fill="red" stroke="black" stroke-width="0.1"/>
<path d="M28.434183,85.408554 L35.06178,82.89746 L21.660242,87.38058 z" fill="red" stroke="black" stroke-width="0.1"/>
<path d="M14.680178,88.80662 L21.660242,87.38058 L7.4690056,89.68326 z" fill="red" stroke="black" stroke-width="0.1"/>
<path d="M58.576378,68.30638 L68.306366,58.576385 L47.39402,76.51202 z" fill="red" stroke="black" stroke-width="0.1"/>
<path d="M35.06178,82.89746 L47.39402,76.51202 L21.660242,87.38058 z" fill="red" stroke="black" stroke-width="0.1"/>
<path d="M68.306366,58.576385 L7.4690056,89.68326 L21.660242,87.38058 z" fill="red" stroke="black" stroke-width="0.1"/>
<path d="M47.39402,76.51202 L68.306366,58.576385 L21.660242,87.38058 z" fill="red" stroke="black" stroke-width="0.1"/>
<path d="M68.306366,58.576385 L-87.38058,-21.660242 L-7.4690056,89.68326 z" fill="red" stroke="black" stroke-width="0.1"/>
<path d="M68.306366,58.576385 L-7.4690056,89.68326 L7.4690056,89.68326 z" fill="red" stroke="black" stroke-width="0.1"/>
<path d="M7.4690056,89.68326 L-7.4690056,89.68326 L0,90 z" fill="red" stroke="black" stroke-width="0.1"/>
</svg>
</svg>