<svg viewBox="0 0 90 90" xmlns="http://www.w3.org/2000/svg">
<path d="M4.7061434,8.509521 L5.678273,8.776744 L6.1142516,7.7333565 z" fill="blue" stroke="black" stroke-width="0.1"/>
<path d="M4.7061434,8.509521 L6.1142516,7.7333565 L5.2427373,7.22534 z" fill="blue" stroke="black" stroke-width="0.1"/>
<path d="M5.2427373,7.22534 L6.1142516,7.7333565 L6.8215237,6.8215237 z" fill="blue" stroke="black" stroke-width="0.1"/>
<path d="M5.2427373,7.22534 L6.8215237,6.8215237 L6.108795,6.108795 z" fill="blue" stroke="black" stroke-width="0.1"/>
<path d="M6.108795,6.108795 L6.8215237,6.8215237 L7.733356,6.1142516 z" fill="blue" stroke="black" stroke-width="0.1"/>
<path d="M6.108795,6.108795 L7.733356,6.1142516 L7.2253394,5.2427373 z" fill="blue" stroke="black" stroke-width="0.1"/>
<path d="M7.2253394,5.2427373 L7.733356,6.1142516 L8.776745,5.678273 z" fill="blue" stroke="black" stroke-width="0.1"/>
<path d="M7.2253394,5.2427373 L8.776745,5.678273 L8.5095215,4.7061434 z" fill="blue" stroke="black" stroke-width="0.1"/>
<path d="M8.5095215,4.7061434 L8.776745,5.678273 L10.035238,5.5 z" fill="blue" stroke="black" stroke-width="0.1"/>
<path d="M8.5095215,4.7061434 L10.035238,5.5 L9.964762,4.5 z" fill="blue" stroke="black" stroke-width="0.1"/>
<path d="M9.964762,4.5 L10.035238,5.5 L79.96476,5.5 z" fill="blue" stroke="black" stroke-width="0.1"/>
<path d="M9.964762,4.5 L79.96476,5.5 L80.03524,4.5 z" fill="blue" stroke="black" stroke-width="0.1"/>
<path d="M80.03524,4.5 L79.96476,5.5 L81.22327,5.6782737 z" fill="blue" stroke="black" stroke-width="0.1"/>
<path d="M80.03524,4.5 L81.22327,5.6782737 L81.49049,4.706144 z" fill="blue" stroke="black" stroke-width="0.1"/>
<path d="M81.49049,4.706144 L81.22327,5.6782737 L82.26664,6.1142516 z" fill="blue" stroke="black" stroke-width="0.1"/>
<path d="M81.49049,4.706144 L82.26664,6.1142516 L82.774666,5.2427382 z" fill="blue" stroke="black" stroke-width="0.1"/>
<path d="M82.774666,5.2427382 L82.26664,6.1142516 L83.178474,6.8215237 z" fill="blue" stroke="black" stroke-width="0.1"/>
<path d="M82.774666,5.2427382 L83.178474,6.8215237 L83.8912,6.108795 z" fill="blue" stroke="black" stroke-width="0.1"/>
<path d="M83.8912,6.108795 L83.178474,6.8215237 L83.88575,7.733358 z" fill="blue" stroke="black" stroke-width="0.1"/>
<path d="M83.8912,6.108795 L83.88575,7.733358 L84.75727,7.2253404 z" fill="blue" stroke="black" stroke-width="0.1"/>
<path d="M84.75727,7.2253404 L83.88575,7.733358 L84.321724,8.776744 z" fill="blue" stroke="black" stroke-width="0.1"/>
<path d="M84.75727,7.2253404 L84.321724,8.776744 L85.29386,8.509522 z" fill="blue" stroke="black" stroke-width="0.1"/>
<path d="M85.29386,8.509522 L84.321724,8.776744 L84.5,10.035238 z" fill="blue" stroke="black" stroke-width="0.1"/>
<path d="M85.29386,8.509522 L84.5,10.035238 L85.5,9.964762 z" fill="blue" stroke="black" stroke-width="0.1"/>
<path d="M85.5,9.964762 L84.5,10.035238 L84.5,79.96476 z" fill="blue" stroke="black" stroke-width="0.1"/>
<path d="M85.5,9.964762 L84.5,79.96476 L85.5,80.03524 z" fill="blue" stroke="black" stroke-width="0.1"/>
<path d="M85.5,80.03524 L84.5,79.96476 L84.32172,81.22325 z" fill="blue" stroke="black" stroke-width="0.1"/>
<path d="M85.5,80.03524 L84.32172,81.22325 L85.29384,81.49048 z" fill="blue" stroke="black" stroke-width="0.1"/>
<path d="M85.29384,81.49048 L84.32172,81.22325 L83.88574,82.26664 z" fill="blue" stroke="black" stroke-width="0.1"/>
<path d="M85.29384,81.49048 L83.88574,82.26664 L84.75726,82.77465 z" fill="blue" stroke="black" stroke-width="0.1"/>
<path d="M84.75726,82.77465 L83.88574,82.26664 L83.178474,83.178474 z" fill="blue" stroke="black" stroke-width="0.1"/>
<path d="M84.75726,82.77465 L83.178474,83.178474 L83.8912,83.8912 z" fill="blue" stroke="black" stroke-width="0.1"/>
<path d="M83.8912,83.8912 L83.178474,83.178474 L82.26663,83.88575 z" fill="blue" stroke="black" stroke-width="0.1"/>
<path d="M83.8912,83.8912 L82.26663,83.88575 L82.77466,84.757256 z" fill="blue" stroke="black" stroke-width="0.1"/>
<path d="M82.77466,84.757256 L82.26663,83.88575 L81.22326,84.32173 z" fill="blue" stroke="black" stroke-width="0.1"/>
<path d="M82.77466,84.757256 L81.22326,84.32173 L81.490486,85.29385 z" fill="blue" stroke="black" stroke-width="0.1"/>
<path d="M81.490486,85.29385 L81.22326,84.32173 L79.96476,84.5 z" fill="blue" stroke="black" stroke-width="0.1"/>
<path d="M81.490486,85.29385 L79.96476,84.5 L80.03524,85.5 z" fill="blue" stroke="black" stroke-width="0.1"/>
<path d="M80.03524,85.5 L79.96476,84.5 L10.035238,84.5 z" fill="blue" stroke="black" stroke-width="0.1"/>
<path d="M80.03524,85.5 L10.035238,84.5 L9.964762,85.5 z" fill="blue" stroke="black" stroke-width="0.1"/>
<path d="M9.964762,85.5 L10.035238,84.5 L8.776746,84.32173 z" fill="blue" stroke="black" stroke-width="0.1"/>
<path d="M9.964762,85.5 L8.776746,84.32173 L8.509521,85.29385 z" fill="blue" stroke="black" stroke-width="0.1"/>
<path d="M8.509521,85.29385 L8.776746,84.32173 L7.7333574,83.88574 z" fill="blue" stroke="black" stroke-width="0.1"/>
<path d="M8.509521,85.29385 L7.7333574,83.88574 L7.22534,84.75726 z" fill="blue" stroke="black" stroke-width="0.1"/>
<path d="M7.22534,84.75726 L7.7333574,83.88574 L6.821523,83.178474 z" fill="blue" stroke="black" stroke-width="0.1"/>
<path d="M7.22534,84.75726 L6.821523,83.178474 L6.1087956,83.8912 z" fill="blue" stroke="black" stroke-width="0.1"/>
<path d="M6.1087956,83.8912 L6.821523,83.178474 L6.1142516,82.26665 z" fill="blue" stroke="black" stroke-width="0.1"/>
<path d="M6.1087956,83.8912 L6.1142516,82.26665 L5.2427382,82.77466 z" fill="blue" stroke="black" stroke-width="0.1"/>
<path d="M5.2427382,82.77466 L6.1142516,82.26665 L5.678273,81.22326 z" fill="blue" stroke="black" stroke-width="0.1"/>
<path d="M5.2427382,82.77466 L5.678273,81.22326 L4.7061434,81.490486 z" fill="blue" stroke="black" stroke-width="0.1"/>
<path d="M4.7061434,81.490486 L5.678273,81.22326 L5.5,79.96476 z" fill="blue" stroke="black" stroke-width="0.1"/>
<path d="M4.7061434,81.490486 L5.5,79.96476 L4.5,80.03524 z" fill="blue" stroke="black" stroke-width="0.1"/>
<path d="M4.5,80.03524 L5.5,79.96476 L5.5,10.035238 z" fill="blue" stroke="black" stroke-width="0.1"/>
<path d="M4.5,80.03524 L5.5,10.035238 L4.5,9.964762 z" fill="blue" stroke="black" stroke-width="0.1"/>
<path d="M4.5,9.964762 L5.5,10.035238 L4.7061434,8.509521 z" fill="blue" stroke="black" stroke-width="0.1"/>
<path d="M5.5,10.035238 L5.678273,8.776744 L4.7061434,8.509521 z" fill="blue" stroke="black" stroke-width="0.1"/>
<svg viewBox="0 0 90 90" xmlns="http://www.w3.org/2000/svg">
<path d="M80,5 L10,5 L8.643132,5.1922083 z" fill="red" stroke="black" stroke-width="0.1"/>
<path d="M8.643132,5.1922083 L7.479348,5.6784945 L6.4651594,6.4651594 z" fill="red" stroke="black" stroke-width="0.1"/>
<path d="M6.4651594,6.4651594 L5.6784945,7.4793477 L5.1922083,8.643133 z" fill="red" stroke="black" stroke-width="0.1"/>
<path d="M5.1922083,8.643133 L5,10 L5,80 z" fill="red" stroke="black" stroke-width="0.1"/>
<path d="M5,80 L5.192209,81.35688 L5.678495,82.52065 z" fill="red" stroke="black" stroke-width="0.1"/>
<path d="M5.678495,82.52065 L6.4651594,83.534836 L7.479349,84.32151 z" fill="red" stroke="black" stroke-width="0.1"/>
<path d="M7.479349,84.32151 L8.643133,84.80779 L10,85 z" fill="red" stroke="black" stroke-width="0.1"/>
<path d="M8.643132,5.1922083 L6.4651594,6.4651594 L5.1922083,8.643133 z" fill="red" stroke="black" stroke-width="0.1"/>
<path d="M5.1922083,8.643133 L5,80 L5.678495,82.52065 z" fill="red" stroke="black" stroke-width="0.1"/>
<path d="M5.678495,82.52065 L7.479349,84.32151 L10,85 z" fill="red" stroke="black" stroke-width="0.1"/>
<path d="M8.643132,5.1922083 L5.1922083,8.643133 L5.678495,82.52065 z" fill="red" stroke="black" stroke-width="0.1"/>
<path d="M8.643132,5.1922083 L5.678495,82.52065 L10,85 z" fill="red" stroke="black" stroke-width="0.1"/>
<path d="M81.35688,5.192209 L80,5 L82.52065,5.678495 z" fill="red" stroke="black" stroke-width="0.1"/>
<path d="M83.534836,6.4651594 L82.52065,5.678495 L84.32151,7.479349 z" fill="red" stroke="black" stroke-width="0.1"/>
<path d="M84.80779,8.643133 L84.32151,7.479349 L85,10 z" fill="red" stroke="black" stroke-width="0.1"/>
<path d="M85,80 L85,10 L84.80778,81.356865 z" fill="red" stroke="black" stroke-width="0.1"/>
<path d="M84.3215,82.520645 L84.80778,81.356865 L83.534836,83.534836 z" fill="red" stroke="black" stroke-width="0.1"/>
<path d="M82.520645,84.3215 L83.534836,83.534836 L81.35687,84.80779 z" fill="red" stroke="black" stroke-width="0.1"/>
<path d="M82.52065,5.678495 L80,5 L84.32151,7.479349 z" fill="red" stroke="black" stroke-width="0.1"/>
<path d="M85,10 L84.32151,7.479349 L84.80778,81.356865 z" fill="red" stroke="black" stroke-width="0.1"/>
<path d="M83.534836,83.534836 L84.80778,81.356865 L81.35687,84.80779 z" fill="red" stroke="black" stroke-width="0.1"/>
<path d="M84.32151,7.479349 L80,5 L84.80778,81.356865 z" fill="red" stroke="black" stroke-width="0.1"/>
<path d="M80,5 L81.35687,84.80779 L84.80778,81.356865 z" fill="red" stroke="black" stroke-width="0.1"/>
<path d="M80,5 L8.643132,5.1922083 L81.35687,84.80779 z" fill="red" stroke="black" stroke-width="0.1"/>
<path d="M81.35687,84.80779 L8.643132,5.1922083 L10,85 z" fill="red" stroke="black" stroke-width="0.1"/>
<path d="M81.35687,84.80779 L10,85 L80,85 z" fill="red" stroke="black" stroke-width="0.1"/>
</svg>
</svg>